<svg xmlns="http://www.w3.org/2000/svg" width="32" height="32" viewBox="0 0 32 32" fill="none">
  <defs>
    <linearGradient id="faviconGradient" x1="0%" y1="0%" x2="100%" y2="100%">
      <stop offset="0%" style="stop-color:#3B82F6;stop-opacity:1" />
      <stop offset="50%" style="stop-color:#8B5CF6;stop-opacity:1" />
      <stop offset="100%" style="stop-color:#06B6D4;stop-opacity:1" />
    </linearGradient>
  </defs>
  
  <!-- Background circle -->
  <circle cx="16" cy="16" r="15" fill="url(#faviconGradient)" stroke="rgba(255,255,255,0.2)" stroke-width="1"/>
  
  <!-- Transportation elements -->
  <!-- Bus/Train body -->
  <rect x="8" y="12" width="16" height="8" rx="2" fill="white" opacity="0.9"/>
  
  <!-- Windows -->
  <rect x="10" y="13.5" width="3" height="3" rx="0.5" fill="rgba(59,130,246,0.8)"/>
  <rect x="14.5" y="13.5" width="3" height="3" rx="0.5" fill="rgba(139,92,246,0.8)"/>
  <rect x="19" y="13.5" width="3" height="3" rx="0.5" fill="rgba(6,182,212,0.8)"/>
  
  <!-- Wheels -->
  <circle cx="11" cy="22" r="2" fill="rgba(255,255,255,0.8)"/>
  <circle cx="21" cy="22" r="2" fill="rgba(255,255,255,0.8)"/>
  
  <!-- Connection lines representing network -->
  <path d="M4 8 L12 8" stroke="rgba(255,255,255,0.6)" stroke-width="1" stroke-linecap="round"/>
  <path d="M20 8 L28 8" stroke="rgba(255,255,255,0.6)" stroke-width="1" stroke-linecap="round"/>
  <path d="M4 24 L12 24" stroke="rgba(255,255,255,0.6)" stroke-width="1" stroke-linecap="round"/>
  <path d="M20 24 L28 24" stroke="rgba(255,255,255,0.6)" stroke-width="1" stroke-linecap="round"/>
  
  <!-- Small connection dots -->
  <circle cx="6" cy="8" r="1" fill="rgba(255,255,255,0.8)"/>
  <circle cx="26" cy="8" r="1" fill="rgba(255,255,255,0.8)"/>
  <circle cx="6" cy="24" r="1" fill="rgba(255,255,255,0.8)"/>
  <circle cx="26" cy="24" r="1" fill="rgba(255,255,255,0.8)"/>
</svg> 